<svg xmlns:xlink="http://www.w3.org/1999/xlink" viewBox="0 0 3378 2391" width="3378" height="2391" xmlns:ev="http://www.w3.org/2001/xml-events" xmlns="http://www.w3.org/2000/svg"><style type="text/css"><![CDATA[
.st1 {fill:#303030;font-family:宋体;font-size:10pt}
]]></style><defs><linearGradient x1="0%" x2="0%" y2="100%" y1="0%" id="lg1"><stop stop-color="#fbfbfb" offset="0"/><stop stop-color="#efefef" offset="1"/></linearGradient></defs><g transform="translate(5,5)" id="page1"><rect y="0" fill="#ffffff" stroke="#808080" width="3368" height="2381" x="0"/><g transform="translate(1253.55,1103.54)" id="shape1"><path fill="#000000" fill-opacity="0.08" d="M2,2L2,67.7L112.1,67.7L112.1,2L2,2z"/><path fill="url(#lg1)" stroke="#6d6d6d" d="M0,0L0,65.7L110.1,65.7L110.1,0L0,0z"/><text class="st1"><tspan y="37.3" x="29.1">平台用户</tspan></text></g><g transform="translate(1135.71,973.63)"><g id="shape2"><path fill="#000000" fill-opacity="0.08" d="M2,2M112.1,34.8C112.1,53,87.5,67.7,57.1,67.7C26.6,67.7,2,53,2,34.8C2,16.7,26.6,2,57.1,2C87.5,2,112.1,16.7,112.1,34.8z"/><path fill="url(#lg1)" stroke="#6d6d6d" d="M0,0M110.1,32.8C110.1,51,85.5,65.7,55.1,65.7C24.6,65.7,0,51,0,32.8C0,14.7,24.6,0,55.1,0C85.5,0,110.1,14.7,110.1,32.8z"/></g><path/><text class="st1"><tspan y="37.3" x="29.1">手机号码</tspan></text></g><g transform="translate(1323.07,973.63)"><g id="shape3"><path fill="#000000" fill-opacity="0.08" d="M2,2M112.1,34.8C112.1,53,87.5,67.7,57.1,67.7C26.6,67.7,2,53,2,34.8C2,16.7,26.6,2,57.1,2C87.5,2,112.1,16.7,112.1,34.8z"/><path fill="url(#lg1)" stroke="#6d6d6d" d="M0,0M110.1,32.8C110.1,51,85.5,65.7,55.1,65.7C24.6,65.7,0,51,0,32.8C0,14.7,24.6,0,55.1,0C85.5,0,110.1,14.7,110.1,32.8z"/></g><path/><text class="st1"><tspan y="37.3" x="42.1">密码</tspan></text></g><g transform="translate(1436.47,992.07)"><g id="shape4"><path fill="#000000" fill-opacity="0.08" d="M2,2M112.1,34.8C112.1,53,87.5,67.7,57.1,67.7C26.6,67.7,2,53,2,34.8C2,16.7,26.6,2,57.1,2C87.5,2,112.1,16.7,112.1,34.8z"/><path fill="url(#lg1)" stroke="#6d6d6d" d="M0,0M110.1,32.8C110.1,51,85.5,65.7,55.1,65.7C24.6,65.7,0,51,0,32.8C0,14.7,24.6,0,55.1,0C85.5,0,110.1,14.7,110.1,32.8z"/></g><path/><text class="st1"><tspan y="37.3" x="42.1">邮箱</tspan></text></g><path fill="none" stroke="#385d8a" transform="matrix(0.61,0.79,-0.79,0.61,1226,1031.4)" id="shape5" d="M0,0L90.7,0"/><path fill="none" stroke="#385d8a" transform="matrix(-0.73,0.68,-0.68,-0.73,1378.1,1039.3)" id="shape6" d="M0,0L94.7,0"/><path fill="none" stroke="#385d8a" transform="matrix(-0.96,0.28,-0.28,-0.96,1491.5,1057.8)" id="shape7" d="M0,0L162,0"/><g transform="translate(2044.39,1099.35)" id="shape8"><path fill="#000000" fill-opacity="0.08" d="M2,2L2,76.1L126.2,76.1L126.2,2L2,2z"/><path fill="url(#lg1)" stroke="#6d6d6d" d="M0,0L0,74.1L124.2,74.1L124.2,0L0,0z"/><text class="st1"><tspan y="41.5" x="30.1">支付宝用户</tspan></text></g><g transform="translate(1922.8,968.11)"><g id="shape9"><path fill="#000000" fill-opacity="0.08" d="M2,2M126.2,39C126.2,59.5,98.4,76.1,64.1,76.1C29.8,76.1,2,59.5,2,39C2,18.6,29.8,2,64.1,2C98.4,2,126.2,18.6,126.2,39z"/><path fill="url(#lg1)" stroke="#6d6d6d" d="M0,0M124.2,37C124.2,57.5,96.4,74.1,62.1,74.1C27.8,74.1,0,57.5,0,37C0,16.6,27.8,-0,62.1,-0C96.4,-0,124.2,16.6,124.2,37z"/></g><path/><text class="st1"><tspan y="41.5" x="36.1">支付宝ID</tspan></text></g><g transform="translate(2222.78,1034.55)"><g id="shape10"><path fill="#000000" fill-opacity="0.08" d="M2,2M126.2,39C126.2,59.5,98.4,76.1,64.1,76.1C29.8,76.1,2,59.5,2,39C2,18.6,29.8,2,64.1,2C98.4,2,126.2,18.6,126.2,39z"/><path fill="url(#lg1)" stroke="#6d6d6d" d="M0,0M124.2,37C124.2,57.5,96.4,74.1,62.1,74.1C27.8,74.1,0,57.5,0,37C0,16.6,27.8,-0,62.1,-0C96.4,-0,124.2,16.6,124.2,37z"/></g><path/><text class="st1"><tspan y="41.5" x="42.1">用户ID</tspan></text></g><g transform="translate(2222.78,1122.77)"><g id="shape11"><path fill="#000000" fill-opacity="0.08" d="M2,2M126.2,39C126.2,59.5,98.4,76.1,64.1,76.1C29.8,76.1,2,59.5,2,39C2,18.6,29.8,2,64.1,2C98.4,2,126.2,18.6,126.2,39z"/><path fill="url(#lg1)" stroke="#6d6d6d" d="M0,0M124.2,37C124.2,57.5,96.4,74.1,62.1,74.1C27.8,74.1,0,57.5,0,37C0,16.6,27.8,-0,62.1,-0C96.4,-0,124.2,16.6,124.2,37z"/></g><path/><text class="st1"><tspan y="41.5" x="49.1">昵称</tspan></text></g><g transform="translate(2182.48,1204.45)"><g id="shape12"><path fill="#000000" fill-opacity="0.08" d="M2,2M126.2,39C126.2,59.5,98.4,76.1,64.1,76.1C29.8,76.1,2,59.5,2,39C2,18.6,29.8,2,64.1,2C98.4,2,126.2,18.6,126.2,39z"/><path fill="url(#lg1)" stroke="#6d6d6d" d="M0,0M124.2,37C124.2,57.5,96.4,74.1,62.1,74.1C27.8,74.1,0,57.5,0,37C0,16.6,27.8,-0,62.1,-0C96.4,-0,124.2,16.6,124.2,37z"/></g><path/><text class="st1"><tspan y="41.5" x="49.1">性别</tspan></text></g><g transform="translate(2109.04,1280.69)"><g id="shape13"><path fill="#000000" fill-opacity="0.08" d="M2,2M126.2,39C126.2,59.5,98.4,76.1,64.1,76.1C29.8,76.1,2,59.5,2,39C2,18.6,29.8,2,64.1,2C98.4,2,126.2,18.6,126.2,39z"/><path fill="url(#lg1)" stroke="#6d6d6d" d="M0,0M124.2,37C124.2,57.5,96.4,74.1,62.1,74.1C27.8,74.1,0,57.5,0,37C0,16.6,27.8,-0,62.1,-0C96.4,-0,124.2,16.6,124.2,37z"/></g><path/><text class="st1"><tspan y="41.5" x="49.1">省份</tspan></text></g><g transform="translate(1969.63,1280.69)"><g id="shape14"><path fill="#000000" fill-opacity="0.08" d="M2,2M126.2,39C126.2,59.5,98.4,76.1,64.1,76.1C29.8,76.1,2,59.5,2,39C2,18.6,29.8,2,64.1,2C98.4,2,126.2,18.6,126.2,39z"/><path fill="url(#lg1)" stroke="#6d6d6d" d="M0,0M124.2,37C124.2,57.5,96.4,74.1,62.1,74.1C27.8,74.1,0,57.5,0,37C0,16.6,27.8,-0,62.1,-0C96.4,-0,124.2,16.6,124.2,37z"/></g><path/><text class="st1"><tspan y="41.5" x="49.1">城市</tspan></text></g><g transform="translate(1900.08,1215.52)"><g id="shape15"><path fill="#000000" fill-opacity="0.08" d="M2,2M126.2,39C126.2,59.5,98.4,76.1,64.1,76.1C29.8,76.1,2,59.5,2,39C2,18.6,29.8,2,64.1,2C98.4,2,126.2,18.6,126.2,39z"/><path fill="url(#lg1)" stroke="#6d6d6d" d="M0,0M124.2,37C124.2,57.5,96.4,74.1,62.1,74.1C27.8,74.1,0,57.5,0,37C0,16.6,27.8,-0,62.1,-0C96.4,-0,124.2,16.6,124.2,37z"/></g><path/><text class="st1"><tspan y="41.5" x="36.1">用户头像</tspan></text></g><g transform="translate(1832.97,1150.91)"><g id="shape16"><path fill="#000000" fill-opacity="0.08" d="M2,2M126.2,39C126.2,59.5,98.4,76.1,64.1,76.1C29.8,76.1,2,59.5,2,39C2,18.6,29.8,2,64.1,2C98.4,2,126.2,18.6,126.2,39z"/><path fill="url(#lg1)" stroke="#6d6d6d" d="M0,0M124.2,37C124.2,57.5,96.4,74.1,62.1,74.1C27.8,74.1,0,57.5,0,37C0,16.6,27.8,-0,62.1,-0C96.4,-0,124.2,16.6,124.2,37z"/></g><path/><text class="st1"><tspan y="41.5" x="36.1">用户类型</tspan></text></g><g transform="translate(1835.67,1041.08)"><g id="shape17"><path fill="#000000" fill-opacity="0.08" d="M2,2M126.2,39C126.2,59.5,98.4,76.1,64.1,76.1C29.8,76.1,2,59.5,2,39C2,18.6,29.8,2,64.1,2C98.4,2,126.2,18.6,126.2,39z"/><path fill="url(#lg1)" stroke="#6d6d6d" d="M0,0M124.2,37C124.2,57.5,96.4,74.1,62.1,74.1C27.8,74.1,0,57.5,0,37C0,16.6,27.8,-0,62.1,-0C96.4,-0,124.2,16.6,124.2,37z"/></g><path/><text class="st1"><tspan y="41.5" x="36.1">用户状态</tspan></text></g><g transform="translate(2031.71,918.01)"><g id="shape18"><path fill="#000000" fill-opacity="0.08" d="M2,2M126.2,39C126.2,59.5,98.4,76.1,64.1,76.1C29.8,76.1,2,59.5,2,39C2,18.6,29.8,2,64.1,2C98.4,2,126.2,18.6,126.2,39z"/><path fill="url(#lg1)" stroke="#6d6d6d" d="M0,0M124.2,37C124.2,57.5,96.4,74.1,62.1,74.1C27.8,74.1,0,57.5,0,37C0,16.6,27.8,-0,62.1,-0C96.4,-0,124.2,16.6,124.2,37z"/></g><path/><text class="st1"><tspan y="41.5" x="23.1">是否实名认证</tspan></text></g><g transform="translate(2129.73,968.11)"><g id="shape19"><path fill="#000000" fill-opacity="0.08" d="M2,2M126.2,39C126.2,59.5,98.4,76.1,64.1,76.1C29.8,76.1,2,59.5,2,39C2,18.6,29.8,2,64.1,2C98.4,2,126.2,18.6,126.2,39z"/><path fill="url(#lg1)" stroke="#6d6d6d" d="M0,0M124.2,37C124.2,57.5,96.4,74.1,62.1,74.1C27.8,74.1,0,57.5,0,37C0,16.6,27.8,-0,62.1,-0C96.4,-0,124.2,16.6,124.2,37z"/></g><path/><text class="st1"><tspan y="41.5" x="30.1">是否是学生</tspan></text></g><path fill="none" stroke="#385d8a" transform="matrix(0.85,0.53,-0.53,0.85,1984.9,1042.2)" id="shape20" d="M0,0L107.1,0"/><path fill="none" stroke="#385d8a" transform="matrix(0.12,0.99,-0.99,0.12,2093.8,992.1)" id="shape21" d="M0,0L108,0"/><path fill="none" stroke="#385d8a" transform="matrix(-0.22,0.98,-0.98,-0.22,2152.1,1033.3)" id="shape22" d="M0,0L67.7,0"/><path fill="none" stroke="#385d8a" transform="matrix(0.99,0.11,-0.11,0.99,1937.5,1106.3)" id="shape23" d="M0,0L107.5,0"/><path fill="none" stroke="#385d8a" transform="matrix(0.98,-0.21,0.21,0.98,1934.8,1159.8)" id="shape24" d="M0,0L112.1,0"/><path fill="none" stroke="#385d8a" transform="matrix(0.8,-0.59,0.59,0.8,1962.2,1215.5)" id="shape25" d="M0,0L102.2,0"/><path fill="none" stroke="#385d8a" transform="matrix(0.38,-0.93,0.93,0.38,2031.7,1280.7)" id="shape26" d="M0,0L115.8,0"/><path fill="none" stroke="#385d8a" transform="matrix(-0.21,-0.98,0.98,-0.21,2131.4,1289.6)" id="shape27" d="M0,0L118.8,0"/><path fill="none" stroke="#385d8a" transform="matrix(-0.54,-0.84,0.84,-0.54,2180.9,1241.5)" id="shape28" d="M0,0L80.7,0"/><path fill="none" stroke="#385d8a" transform="matrix(0.75,-0.66,0.66,0.75,2168.5,1117.9)" id="shape29" d="M0,0L70.1,0"/><path fill="none" stroke="#385d8a" transform="matrix(0.91,0.41,-0.41,0.91,2168.5,1136.4)" id="shape30" d="M0,0L57.6,0"/><g transform="translate(1252.88,1441.86)" id="shape31"><path fill="#000000" fill-opacity="0.08" d="M2,2L2,70.8L117.3,70.8L117.3,2L2,2z"/><path fill="url(#lg1)" stroke="#6d6d6d" d="M0,0L0,68.8L115.3,68.8L115.3,0L0,0z"/><text class="st1"><tspan y="38.9" x="45.2">学生</tspan></text></g><g transform="translate(1179.98,1553.12)"><g id="shape32"><path fill="#000000" fill-opacity="0.08" d="M2,2M117.3,36.4C117.3,55.4,91.5,70.8,59.7,70.8C27.8,70.8,2,55.4,2,36.4C2,17.4,27.8,2,59.7,2C91.5,2,117.3,17.4,117.3,36.4z"/><path fill="url(#lg1)" stroke="#6d6d6d" d="M0,0M115.3,34.4C115.3,53.4,89.5,68.8,57.7,68.8C25.8,68.8,0,53.4,0,34.4C0,15.4,25.8,-0,57.7,-0C89.5,-0,115.3,15.4,115.3,34.4z"/></g><path/><text class="st1"><tspan y="38.9" x="45.2">头像</tspan></text></g><g transform="translate(1321.92,1553.12)"><g id="shape33"><path fill="#000000" fill-opacity="0.08" d="M2,2M117.3,36.4C117.3,55.4,91.5,70.8,59.7,70.8C27.8,70.8,2,55.4,2,36.4C2,17.4,27.8,2,59.7,2C91.5,2,117.3,17.4,117.3,36.4z"/><path fill="url(#lg1)" stroke="#6d6d6d" d="M0,0M115.3,34.4C115.3,53.4,89.5,68.8,57.7,68.8C25.8,68.8,0,53.4,0,34.4C0,15.4,25.8,-0,57.7,-0C89.5,-0,115.3,15.4,115.3,34.4z"/></g><path/><text class="st1"><tspan y="38.9" x="45.2">年级</tspan></text></g><path fill="none" stroke="#385d8a" transform="matrix(-0.72,0.69,-0.69,-0.72,1281.7,1510.6)" id="shape34" d="M0,0L61.2,0"/><path fill="none" stroke="#385d8a" transform="matrix(0.69,0.73,-0.73,0.69,1339.4,1510.6)" id="shape35" d="M0,0L58.5,0"/><g transform="translate(1520.72,1091.61)" id="shape36"><path fill="#000000" fill-opacity="0.08" d="M2,46.7L79.2,2L156.4,46.7L79.2,91.4L2,46.7z"/><path fill="url(#lg1)" stroke="#6d6d6d" d="M0,44.7L77.2,0L154.4,44.7L77.2,89.4L0,44.7z"/><text class="st1"><tspan y="49.2" x="64.2">授权</tspan></text></g><path fill="none" stroke="#385d8a" transform="matrix(1,-0,0,1,1363.7,1136.4)" id="shape37" d="M0,0L157.1,0"/><path fill="none" stroke="#385d8a" transform="matrix(1,0,-0,1,1675.1,1136.3)" id="shape38" d="M0,0L369.3,0"/><g transform="translate(1231.27,1265.21)" id="shape39"><path fill="#000000" fill-opacity="0.08" d="M2,46.8L79.3,2L156.7,46.8L79.3,91.5L2,46.8z"/><path fill="url(#lg1)" stroke="#6d6d6d" d="M0,44.8L77.3,0L154.7,44.8L77.3,89.5L0,44.8z"/><text class="st1"><tspan y="49.3" x="64.3">授权</tspan></text></g><path fill="none" stroke="#385d8a" transform="matrix(0,1,-1,0,1308.6,1169.2)" id="shape40" d="M0,0L96,0"/><path fill="none" stroke="#385d8a" transform="matrix(0.02,1,-1,0.02,1308.6,1354.8)" id="shape41" d="M0,0L87.1,0"/><g transform="translate(1076.38,1046.99)"><g id="shape42"><path fill="#000000" fill-opacity="0.08" d="M2,2M106.4,33.1C106.4,50.3,83,64.3,54.2,64.3C25.4,64.3,2,50.3,2,33.1C2,15.9,25.4,2,54.2,2C83,2,106.4,15.9,106.4,33.1z"/><path fill="url(#lg1)" stroke="#6d6d6d" d="M0,0M104.4,31.1C104.4,48.3,81,62.3,52.2,62.3C23.4,62.3,-0,48.3,-0,31.1C-0,13.9,23.4,-0,52.2,-0C81,-0,104.4,13.9,104.4,31.1z"/></g><path/><text class="st1"><tspan y="35.6" x="39.2">角色</tspan></text></g><path fill="none" stroke="#385d8a" transform="matrix(0.94,0.35,-0.35,0.94,1162,1101.8)" id="shape43" d="M0,0L97.9,0"/><g transform="translate(374.98,1092.11)" id="shape44"><path fill="#000000" fill-opacity="0.08" d="M2,2L2,86.7L144,86.7L144,2L2,2z"/><path fill="url(#lg1)" stroke="#6d6d6d" d="M0,0L0,84.7L142,84.7L142,0L0,0z"/><text class="st1"><tspan y="46.8" x="45.5">兼职信息</tspan></text></g><g transform="translate(190.3,1092.11)"><g id="shape45"><path fill="#000000" fill-opacity="0.08" d="M2,2M88.3,27.7C88.3,42,69,53.5,45.1,53.5C21.3,53.5,2,42,2,27.7C2,13.5,21.3,2,45.1,2C69,2,88.3,13.5,88.3,27.7z"/><path fill="url(#lg1)" stroke="#6d6d6d" d="M0,0M86.3,25.7C86.3,40,67,51.5,43.1,51.5C19.3,51.5,-0,40,-0,25.7C-0,11.5,19.3,-0,43.1,-0C67,-0,86.3,11.5,86.3,25.7z"/></g><path/><text class="st1"><tspan y="30.2" x="17.1">兼职类型</tspan></text></g><g transform="translate(205.61,1034.34)"><g id="shape46"><path fill="#000000" fill-opacity="0.08" d="M2,2M89,28C89,42.3,69.5,53.9,45.5,53.9C21.5,53.9,2,42.3,2,28C2,13.6,21.5,2,45.5,2C69.5,2,89,13.6,89,28z"/><path fill="url(#lg1)" stroke="#6d6d6d" d="M0,0M87,26C87,40.3,67.5,51.9,43.5,51.9C19.5,51.9,0,40.3,0,26C0,11.6,19.5,-0,43.5,-0C67.5,-0,87,11.6,87,26z"/></g><path/><text class="st1"><tspan y="30.5" x="18">兼职标题</tspan></text></g><g transform="translate(652.92,1210.07)"><g id="shape47"><path fill="#000000" fill-opacity="0.08" d="M2,2M101.6,31.7C101.6,48.1,79.3,61.4,51.8,61.4C24.3,61.4,2,48.1,2,31.7C2,15.3,24.3,2,51.8,2C79.3,2,101.6,15.3,101.6,31.7z"/><path fill="url(#lg1)" stroke="#6d6d6d" d="M0,0M99.6,29.7C99.6,46.1,77.3,59.4,49.8,59.4C22.3,59.4,0,46.1,0,29.7C0,13.3,22.3,-0,49.8,-0C77.3,-0,99.6,13.3,99.6,29.7z"/></g><path/><text class="st1"><tspan y="34.2" x="24.3">招聘人数</tspan></text></g><g transform="translate(615.45,1265.66)"><g id="shape48"><path fill="#000000" fill-opacity="0.08" d="M2,2M103.7,32.3C103.7,49.1,80.9,62.7,52.8,62.7C24.8,62.7,2,49.1,2,32.3C2,15.6,24.8,2,52.8,2C80.9,2,103.7,15.6,103.7,32.3z"/><path fill="url(#lg1)" stroke="#6d6d6d" d="M0,0M101.7,30.3C101.7,47.1,78.9,60.7,50.8,60.7C22.8,60.7,0,47.1,0,30.3C0,13.6,22.8,0,50.8,0C78.9,0,101.7,13.6,101.7,30.3z"/></g><path/><text class="st1"><tspan y="34.8" x="25.3">结算周期</tspan></text></g><g transform="translate(170.11,1153.57)"><g id="shape49"><path fill="#000000" fill-opacity="0.08" d="M2,2M90.4,28.4C90.4,42.9,70.6,54.7,46.2,54.7C21.8,54.7,2,42.9,2,28.4C2,13.8,21.8,2,46.2,2C70.6,2,90.4,13.8,90.4,28.4z"/><path fill="url(#lg1)" stroke="#6d6d6d" d="M0,0M88.4,26.4C88.4,40.9,68.6,52.7,44.2,52.7C19.8,52.7,0,40.9,0,26.4C0,11.8,19.8,0,44.2,0C68.6,0,88.4,11.8,88.4,26.4z"/></g><path/><text class="st1"><tspan y="30.9" x="18.2">基本工资</tspan></text></g><g transform="translate(188.87,1216.3)"><g id="shape50"><path fill="#000000" fill-opacity="0.08" d="M2,2M91.2,28.6C91.2,43.3,71.2,55.2,46.6,55.2C22,55.2,2,43.3,2,28.6C2,13.9,22,2,46.6,2C71.2,2,91.2,13.9,91.2,28.6z"/><path fill="url(#lg1)" stroke="#6d6d6d" d="M0,0M89.2,26.6C89.2,41.3,69.2,53.2,44.6,53.2C20,53.2,0,41.3,0,26.6C0,11.9,20,-0,44.6,-0C69.2,-0,89.2,11.9,89.2,26.6z"/></g><path/><text class="st1"><tspan y="31.1" x="19.1">工作种类</tspan></text></g><g transform="translate(240.48,1265.66)"><g id="shape51"><path fill="#000000" fill-opacity="0.08" d="M2,2M90.4,28.4C90.4,42.9,70.6,54.7,46.2,54.7C21.8,54.7,2,42.9,2,28.4C2,13.8,21.8,2,46.2,2C70.6,2,90.4,13.8,90.4,28.4z"/><path fill="url(#lg1)" stroke="#6d6d6d" d="M0,0M88.4,26.4C88.4,40.9,68.6,52.7,44.2,52.7C19.8,52.7,0,40.9,0,26.4C0,11.8,19.8,0,44.2,0C68.6,0,88.4,11.8,88.4,26.4z"/></g><path/><text class="st1"><tspan y="23.4" x="12.2">工作起始时</tspan><tspan y="38.4" x="38.2">间</tspan></text></g><g transform="translate(323.94,1310.06)"><g id="shape52"><path fill="#000000" fill-opacity="0.08" d="M2,2M91.2,28.6C91.2,43.3,71.2,55.2,46.6,55.2C22,55.2,2,43.3,2,28.6C2,13.9,22,2,46.6,2C71.2,2,91.2,13.9,91.2,28.6z"/><path fill="url(#lg1)" stroke="#6d6d6d" d="M0,0M89.2,26.6C89.2,41.3,69.2,53.2,44.6,53.2C20,53.2,0,41.3,0,26.6C0,11.9,20,-0,44.6,-0C69.2,-0,89.2,11.9,89.2,26.6z"/></g><path/><text class="st1"><tspan y="23.6" x="12.1">工作结束时</tspan><tspan y="38.6" x="38.1">间</tspan></text></g><g transform="translate(425.72,1323.38)"><g id="shape53"><path fill="#000000" fill-opacity="0.08" d="M2,2M95.3,29.8C95.3,45.2,74.4,57.7,48.7,57.7C22.9,57.7,2,45.2,2,29.8C2,14.5,22.9,2,48.7,2C74.4,2,95.3,14.5,95.3,29.8z"/><path fill="url(#lg1)" stroke="#6d6d6d" d="M0,0M93.3,27.8C93.3,43.2,72.4,55.7,46.7,55.7C20.9,55.7,-0,43.2,-0,27.8C-0,12.5,20.9,0,46.7,0C72.4,0,93.3,12.5,93.3,27.8z"/></g><path/><text class="st1"><tspan y="24.8" x="14.2">上班起始时</tspan><tspan y="39.8" x="40.2">间</tspan></text></g><g transform="translate(531.67,1310.06)"><g transform="translate(5.01,0)" id="shape54"><path fill="#000000" fill-opacity="0.08" d="M2,2M93.2,29.2C93.2,44.2,72.8,56.4,47.6,56.4C22.4,56.4,2,44.2,2,29.2C2,14.2,22.4,2,47.6,2C72.8,2,93.2,14.2,93.2,29.2z"/><path fill="url(#lg1)" stroke="#6d6d6d" d="M0,0M91.2,27.2C91.2,42.2,70.8,54.4,45.6,54.4C20.4,54.4,-0,42.2,-0,27.2C-0,12.2,20.4,-0,45.6,-0C70.8,-0,91.2,12.2,91.2,27.2z"/></g><path/><text class="st1"><tspan y="24.2" x="13.1">上班结束时</tspan><tspan y="39.2" x="39.1">间</tspan></text></g><g transform="translate(326.03,938.05)"><g id="shape55"><path fill="#000000" fill-opacity="0.08" d="M2,2M89.1,28C89.1,42.3,69.6,53.9,45.5,53.9C21.5,53.9,2,42.3,2,28C2,13.6,21.5,2,45.5,2C69.6,2,89.1,13.6,89.1,28z"/><path fill="url(#lg1)" stroke="#6d6d6d" d="M0,0M87.1,26C87.1,40.3,67.6,51.9,43.5,51.9C19.5,51.9,0,40.3,0,26C0,11.6,19.5,0,43.5,0C67.6,0,87.1,11.6,87.1,26z"/></g><path/><text class="st1"><tspan y="30.5" x="18">性别要求</tspan></text></g><g transform="translate(666.37,1066.23)" id="shape56"><path fill="#000000" fill-opacity="0.08" d="M10.6,20.6C7.2,13.7,19.1,2.9,27.7,11.7C29.6,1.9,41.8,.3,47.8,8.5C49.7,-1.4,64.2,.6,65.3,10.8C71.6,-3.3,88,5.9,86.5,14.7C94.3,3.9,108,17.3,101,24.2C111.8,26.2,108,36.7,102.9,38.3C115.2,45.5,102.9,58.9,92.8,50.4C92.8,63.2,79.4,59.9,77.4,55.5C72.7,66.8,59,66.8,53.6,58.4C47.4,67.8,37,64.5,34.4,57.3C23.2,64.2,15,54,18,49.8C1.3,59.3,-2.8,38.9,9.4,37.6C-5.4,32.1,5.7,19.6,10.6,20.6z"/><path fill="url(#lg1)" stroke="#6d6d6d" d="M8.6,18.6C5.2,11.7,17.1,.9,25.7,9.7C27.6,-0.1,39.8,-1.7,45.8,6.5C47.7,-3.4,62.2,-1.4,63.3,8.8C69.6,-5.3,86,3.9,84.5,12.7C92.3,1.9,106,15.3,99,22.2C109.8,24.2,106,34.7,100.9,36.3C113.2,43.5,100.9,56.9,90.8,48.4C90.8,61.2,77.4,57.9,75.4,53.5C70.7,64.8,57,64.8,51.6,56.4C45.4,65.8,35,62.5,32.4,55.3C21.2,62.2,13,52,16,47.8C-0.7,57.3,-4.8,36.9,7.4,35.6C-7.4,30.1,3.7,17.6,8.6,18.6z"/><text class="st1"><tspan y="35.7" x="27">工作福利</tspan></text></g><g transform="translate(250.95,982.14)"><g id="shape57"><path fill="#000000" fill-opacity="0.08" d="M2,2M92.4,29C92.4,43.9,72.2,55.9,47.2,55.9C22.2,55.9,2,43.9,2,29C2,14.1,22.2,2,47.2,2C72.2,2,92.4,14.1,92.4,29z"/><path fill="url(#lg1)" stroke="#6d6d6d" d="M0,0M90.4,27C90.4,41.9,70.2,53.9,45.2,53.9C20.2,53.9,-0,41.9,-0,27C-0,12.1,20.2,0,45.2,0C70.2,0,90.4,12.1,90.4,27z"/></g><path/><text class="st1"><tspan y="31.5" x="19.2">兼职描述</tspan></text></g><g transform="translate(558.06,953.5)"><g id="shape58"><path fill="#000000" fill-opacity="0.08" d="M2,2M88.2,27.7C88.2,41.9,68.9,53.4,45.1,53.4C21.3,53.4,2,41.9,2,27.7C2,13.5,21.3,2,45.1,2C68.9,2,88.2,13.5,88.2,27.7z"/><path fill="url(#lg1)" stroke="#6d6d6d" d="M0,0M86.2,25.7C86.2,39.9,66.9,51.4,43.1,51.4C19.3,51.4,0,39.9,0,25.7C0,11.5,19.3,-0,43.1,-0C66.9,-0,86.2,11.5,86.2,25.7z"/></g><path/><text class="st1"><tspan y="30.2" x="17.1">工作地点</tspan></text></g><g transform="translate(449.38,938.05)"><g id="shape59"><path fill="#000000" fill-opacity="0.08" d="M2,2M93.2,29.2C93.2,44.2,72.8,56.4,47.6,56.4C22.4,56.4,2,44.2,2,29.2C2,14.2,22.4,2,47.6,2C72.8,2,93.2,14.2,93.2,29.2z"/><path fill="url(#lg1)" stroke="#6d6d6d" d="M0,0M91.2,27.2C91.2,42.2,70.8,54.4,45.6,54.4C20.4,54.4,-0,42.2,-0,27.2C-0,12.2,20.4,-0,45.6,-0C70.8,-0,91.2,12.2,91.2,27.2z"/></g><path/><text class="st1"><tspan y="31.7" x="13.1">发布者邮箱</tspan></text></g><g transform="translate(632.49,1005.9)"><g id="shape60"><path fill="#000000" fill-opacity="0.08" d="M2,2M94.8,29.7C94.8,45,74,57.4,48.4,57.4C22.8,57.4,2,45,2,29.7C2,14.4,22.8,2,48.4,2C74,2,94.8,14.4,94.8,29.7z"/><path fill="url(#lg1)" stroke="#6d6d6d" d="M0,0M92.8,27.7C92.8,43,72,55.4,46.4,55.4C20.8,55.4,-0,43,-0,27.7C-0,12.4,20.8,0,46.4,0C72,0,92.8,12.4,92.8,27.7z"/></g><path/><text class="st1"><tspan y="32.2" x="20.4">联系电话</tspan></text></g><g transform="translate(672.8,1150.91)" id="shape61"><path fill="#000000" fill-opacity="0.08" d="M9.5,18.3C6.6,12.3,17.1,2.8,24.6,10.6C26.2,1.9,37,.5,42.2,7.7C43.9,-1,56.6,.8,57.6,9.7C63.2,-2.7,77.6,5.4,76.3,13.2C83.1,3.7,95.2,15.5,89,21.5C98.5,23.2,95.2,32.4,90.6,33.9C101.4,40.2,90.7,52,81.8,44.5C81.8,55.8,70,52.9,68.2,49C64.2,58.9,52.1,58.9,47.3,51.6C41.9,59.8,32.8,56.9,30.5,50.6C20.7,56.6,13.5,47.7,16.1,44C1.4,52.3,-2.2,34.5,8.5,33.3C-4.5,28.4,5.3,17.5,9.5,18.3z"/><path fill="url(#lg1)" stroke="#6d6d6d" d="M7.5,16.3C4.6,10.3,15.1,.8,22.6,8.6C24.2,-0.1,35,-1.5,40.2,5.7C41.9,-3,54.6,-1.2,55.6,7.7C61.2,-4.7,75.6,3.4,74.3,11.2C81.1,1.7,93.2,13.5,87,19.5C96.5,21.2,93.2,30.4,88.6,31.9C99.4,38.2,88.7,50,79.8,42.5C79.8,53.8,68,50.9,66.2,47C62.2,56.9,50.1,56.9,45.3,49.6C39.9,57.8,30.8,54.9,28.5,48.6C18.7,54.6,11.5,45.7,14.1,42C-0.6,50.3,-4.2,32.5,6.5,31.3C-6.5,26.4,3.3,15.5,7.5,16.3z"/><text class="st1"><tspan y="31.9" x="21.1">发布学校</tspan></text></g><path fill="none" stroke="#385d8a" transform="matrix(1,-0.05,0.05,1,276.6,1117.8)" id="shape62" d="M0,0L98.5,0"/><path fill="none" stroke="#385d8a" transform="matrix(0.93,-0.36,0.36,0.93,258.5,1179.9)" id="shape63" d="M0,0L125,0"/><path fill="none" stroke="#385d8a" transform="matrix(0.86,-0.51,0.51,0.86,262,1222.7)" id="shape64" d="M0,0L131.4,0"/><path fill="none" stroke="#385d8a" transform="matrix(0.47,-0.88,0.88,0.47,313,1272)" id="shape65" d="M0,0L131.8,0"/><path fill="none" stroke="#385d8a" transform="matrix(0.3,-0.95,0.95,0.3,368.5,1310.1)" id="shape66" d="M0,0L139.7,0"/><path fill="none" stroke="#385d8a" transform="matrix(0.18,0.98,-0.98,0.18,446,1176.8)" id="shape67" d="M0,0L148.9,0"/><path fill="none" stroke="#385d8a" transform="matrix(0.58,0.81,-0.81,0.58,481.5,1176.8)" id="shape68" d="M0,0L164.1,0"/><path fill="none" stroke="#385d8a" transform="matrix(0.71,0.71,-0.71,0.71,517,1155.6)" id="shape69" d="M0,0L165.5,0"/><path fill="none" stroke="#385d8a" transform="matrix(0.85,0.53,-0.53,0.85,517,1155.6)" id="shape70" d="M0,0L159.9,0"/><path fill="none" stroke="#385d8a" transform="matrix(0.97,0.25,-0.25,0.97,517,1134.5)" id="shape71" d="M0,0L160.8,0"/><path fill="none" stroke="#385d8a" transform="matrix(0.99,-0.14,0.14,0.99,517,1113.3)" id="shape72" d="M0,0L150.8,0"/><path fill="none" stroke="#385d8a" transform="matrix(0.93,-0.36,0.36,0.93,481.5,1092.1)" id="shape73" d="M0,0L162,0"/><path fill="none" stroke="#385d8a" transform="matrix(0.81,-0.59,0.59,0.81,446,1092.1)" id="shape74" d="M0,0L158.1,0"/><path fill="none" stroke="#385d8a" transform="matrix(-1,-0.09,0.09,-1,410.5,1092.1)" id="shape75" d="M0,0L134.1,0"/><path fill="none" stroke="#385d8a" transform="matrix(0.9,0.44,-0.44,0.9,296.2,1036.1)" id="shape76" d="M0,0L127.3,0"/><path fill="none" stroke="#385d8a" transform="matrix(0.37,0.93,-0.93,0.37,369.6,990)" id="shape77" d="M0,0L110,0"/><path fill="none" stroke="#385d8a" transform="matrix(-0.44,0.9,-0.9,-0.44,495,992.5)" id="shape78" d="M0,0L111,0"/><g transform="translate(849.81,1091.61)" id="shape79"><path fill="#000000" fill-opacity="0.08" d="M2,43.3L73.3,2L144.6,43.3L73.3,84.6L2,43.3z"/><path fill="url(#lg1)" stroke="#6d6d6d" d="M0,41.3L71.3,0L142.6,41.3L71.3,82.6L0,41.3z"/><text class="st1"><tspan y="45.8" x="45.3">发布兼职</tspan></text></g><path fill="none" stroke="#385d8a" transform="matrix(1,0.01,-0.01,1,992.5,1132.9)" id="shape80" d="M0,0L261.1,0"/><path fill="none" stroke="#385d8a" transform="matrix(1,-0,0,1,517,1134.5)" id="shape81" d="M0,0L332.9,0"/><path/><g transform="translate(1032.96,1101.47)" id="shape82"><text class="st1"><tspan y="18.1" x="10.1">1</tspan></text></g><g transform="translate(779.46,1101.47)" id="shape83"><text class="st1"><tspan y="18.1" x="11.4">N</tspan></text></g><g transform="translate(385.69,450.13)" id="shape84"><path fill="#000000" fill-opacity="0.08" d="M2,2L2,73.9L122.6,73.9L122.6,2L2,2z"/><path fill="url(#lg1)" stroke="#6d6d6d" d="M0,0L0,71.9L120.6,71.9L120.6,0L0,0z"/><text class="st1"><tspan y="40.5" x="34.3">审核信息</tspan></text></g><g transform="translate(266.44,337.17)"><g id="shape85"><path fill="#000000" fill-opacity="0.08" d="M2,2M105.9,33C105.9,50.1,82.7,64,54,64C25.3,64,2,50.1,2,33C2,15.9,25.3,2,54,2C82.7,2,105.9,15.9,105.9,33z"/><path fill="url(#lg1)" stroke="#6d6d6d" d="M0,0M103.9,31C103.9,48.1,80.7,62,52,62C23.3,62,-0,48.1,-0,31C-0,13.9,23.3,0,52,0C80.7,0,103.9,13.9,103.9,31z"/></g><path/><text class="st1"><tspan y="35.5" x="26.5">审核时间</tspan></text></g><g transform="translate(365.15,291.76)"><g id="shape86"><path fill="#000000" fill-opacity="0.08" d="M2,2M106.7,33.2C106.7,50.5,83.3,64.4,54.3,64.4C25.4,64.4,2,50.5,2,33.2C2,16,25.4,2,54.3,2C83.3,2,106.7,16,106.7,33.2z"/><path fill="url(#lg1)" stroke="#6d6d6d" d="M0,0M104.7,31.2C104.7,48.5,81.3,62.4,52.3,62.4C23.4,62.4,0,48.5,0,31.2C0,14,23.4,-0,52.3,-0C81.3,-0,104.7,14,104.7,31.2z"/></g><path/><text class="st1"><tspan y="35.7" x="26.3">审核人员</tspan></text></g><g transform="translate(562.27,324.96)"><g id="shape87"><path fill="#000000" fill-opacity="0.08" d="M2,2M103.4,32.2C103.4,48.9,80.7,62.5,52.7,62.5C24.7,62.5,2,48.9,2,32.2C2,15.5,24.7,2,52.7,2C80.7,2,103.4,15.5,103.4,32.2z"/><path fill="url(#lg1)" stroke="#6d6d6d" d="M0,0M101.4,30.2C101.4,46.9,78.7,60.5,50.7,60.5C22.7,60.5,0,46.9,0,30.2C0,13.5,22.7,0,50.7,0C78.7,0,101.4,13.5,101.4,30.2z"/></g><path/><text class="st1"><tspan y="34.7" x="25.2">审核状态</tspan></text></g><path fill="none" stroke="#385d8a" transform="matrix(0.74,0.67,-0.67,0.74,351.7,391.7)" id="shape88" d="M0,0L86.8,0"/><path fill="none" stroke="#385d8a" transform="matrix(0.28,0.96,-0.96,0.28,417.5,354.2)" id="shape89" d="M0,0L100.1,0"/><path fill="none" stroke="#385d8a" transform="matrix(0.4,-0.92,0.92,0.4,446,450.1)" id="shape90" d="M0,0L115,0"/><path fill="none" stroke="#385d8a" transform="matrix(0.82,-0.57,0.57,0.82,476.1,450.1)" id="shape91" d="M0,0L126.8,0"/><g transform="translate(368.64,707.51)" id="shape92"><path fill="#000000" fill-opacity="0.08" d="M2,46.8L79.3,2L156.7,46.8L79.3,91.5L2,46.8z"/><path fill="url(#lg1)" stroke="#6d6d6d" d="M0,44.8L77.3,0L154.7,44.8L77.3,89.5L0,44.8z"/><text class="st1"><tspan y="49.3" x="64.3">提交</tspan></text></g><path fill="none" stroke="#385d8a" transform="matrix(0,1,-1,0,446,797.1)" id="shape93" d="M0,0L295.1,0"/><path fill="none" stroke="#385d8a" transform="matrix(0,1,-1,0,446,522.1)" id="shape94" d="M0,0L185.5,0"/><g transform="translate(1233.2,441.32)" id="shape95"><path fill="#000000" fill-opacity="0.08" d="M2,46.8L79.3,2L156.7,46.8L79.3,91.5L2,46.8z"/><path fill="url(#lg1)" stroke="#6d6d6d" d="M0,44.8L77.3,0L154.7,44.8L77.3,89.5L0,44.8z"/><text class="st1"><tspan y="49.3" x="35.3">处理审核/申诉</tspan></text></g><path fill="none" stroke="#385d8a" transform="translate(506.26,486.09)" id="shape96" d="M0,0L726.9,0"/><path fill="none" stroke="#385d8a" transform="matrix(-0,1,-1,-0,1310.5,530.9)" id="shape97" d="M0,0L572.7,0"/><g transform="translate(2039.56,452.58)" id="shape98"><path fill="#000000" fill-opacity="0.08" d="M2,2L2,73.9L122.6,73.9L122.6,2L2,2z"/><path fill="url(#lg1)" stroke="#6d6d6d" d="M0,0L0,71.9L120.6,71.9L120.6,0L0,0z"/><text class="st1"><tspan y="40.5" x="34.3">申诉信息</tspan></text></g><g transform="translate(1920.31,339.62)"><g id="shape99"><path fill="#000000" fill-opacity="0.08" d="M2,2M105.9,33C105.9,50.1,82.7,64,54,64C25.3,64,2,50.1,2,33C2,15.9,25.3,2,54,2C82.7,2,105.9,15.9,105.9,33z"/><path fill="url(#lg1)" stroke="#6d6d6d" d="M0,0M103.9,31C103.9,48.1,80.7,62,52,62C23.3,62,0,48.1,0,31C0,13.9,23.3,-0,52,-0C80.7,-0,103.9,13.9,103.9,31z"/></g><path/><text class="st1"><tspan y="35.5" x="26.5">申诉时间</tspan></text></g><g transform="translate(2019.02,294.2)"><g id="shape100"><path fill="#000000" fill-opacity="0.08" d="M2,2M106.7,33.2C106.7,50.5,83.3,64.4,54.3,64.4C25.4,64.4,2,50.5,2,33.2C2,16,25.4,2,54.3,2C83.3,2,106.7,16,106.7,33.2z"/><path fill="url(#lg1)" stroke="#6d6d6d" d="M0,0M104.7,31.2C104.7,48.5,81.3,62.4,52.3,62.4C23.4,62.4,0,48.5,0,31.2C0,14,23.4,0,52.3,0C81.3,0,104.7,14,104.7,31.2z"/></g><path/><text class="st1"><tspan y="35.7" x="13.3">申诉处理人员</tspan></text></g><g transform="translate(2234.16,344.47)"><g id="shape101"><path fill="#000000" fill-opacity="0.08" d="M2,2M103.4,32.2C103.4,48.9,80.7,62.5,52.7,62.5C24.7,62.5,2,48.9,2,32.2C2,15.5,24.7,2,52.7,2C80.7,2,103.4,15.5,103.4,32.2z"/><path fill="url(#lg1)" stroke="#6d6d6d" d="M0,0M101.4,30.2C101.4,46.9,78.7,60.5,50.7,60.5C22.7,60.5,-0,46.9,-0,30.2C-0,13.5,22.7,-0,50.7,-0C78.7,-0,101.4,13.5,101.4,30.2z"/></g><path/><text class="st1"><tspan y="34.7" x="25.2">申诉状态</tspan></text></g><path fill="none" stroke="#385d8a" transform="matrix(0.74,0.67,-0.67,0.74,2005.5,394.2)" id="shape102" d="M0,0L86.8,0"/><path fill="none" stroke="#385d8a" transform="matrix(0.28,0.96,-0.96,0.28,2071.4,356.6)" id="shape103" d="M0,0L100.1,0"/><path fill="none" stroke="#385d8a" transform="matrix(0.52,-0.86,0.86,0.52,2099.8,452.6)" id="shape104" d="M0,0L119.3,0"/><path fill="none" stroke="#385d8a" transform="matrix(0.91,-0.41,0.41,0.91,2130,452.6)" id="shape105" d="M0,0L134.2,0"/><path fill="none" stroke="#385d8a" transform="matrix(1,0,-0,1,1387.9,486.1)" id="shape106" d="M0,0L651.7,0"/><g transform="translate(468.95,282.87)" id="shape107"><path fill="#000000" fill-opacity="0.08" d="M11.3,22.2C7.7,14.7,20.6,3,30,12.6C32,1.9,45.3,.1,51.8,9C53.8,-1.7,69.6,.5,70.8,11.5C77.7,-3.8,95.5,6.2,93.9,15.8C102.4,4,117.3,18.7,109.7,26.1C121.5,28.3,117.3,39.7,111.7,41.5C125.1,49.3,111.7,63.9,100.8,54.7C100.8,68.6,86.2,65,84,60.2C78.9,72.5,64,72.5,58.1,63.4C51.4,73.6,40.1,69.9,37.2,62.1C25.1,69.6,16.2,58.6,19.4,54C1.2,64.3,-3.2,42.2,10.1,40.8C-6.1,34.7,6.1,21.2,11.3,22.2z"/><path fill="url(#lg1)" stroke="#6d6d6d" d="M9.3,20.2C5.7,12.7,18.6,1,28,10.6C30,-0.1,43.3,-1.9,49.8,7C51.8,-3.7,67.6,-1.5,68.8,9.5C75.7,-5.8,93.5,4.2,91.9,13.8C100.4,2,115.3,16.7,107.7,24.1C119.5,26.3,115.3,37.7,109.7,39.5C123.1,47.3,109.7,61.9,98.8,52.7C98.8,66.6,84.2,63,82,58.2C76.9,70.5,62,70.5,56.1,61.4C49.4,71.6,38.1,67.9,35.2,60.1C23.1,67.6,14.2,56.6,17.4,52C-0.8,62.3,-5.2,40.2,8.1,38.8C-8.1,32.7,4.1,19.2,9.3,20.2z"/><text class="st1"><tspan y="38.4" x="32.2">审核回复</tspan></text></g><g transform="translate(2137.51,286.1)" id="shape108"><path fill="#000000" fill-opacity="0.08" d="M11.7,23C7.9,15.3,21.4,3,31.1,13C33.2,1.9,47.1,.1,53.8,9.3C55.9,-1.8,72.3,.4,73.6,11.9C80.8,-4,99.3,6.4,97.6,16.4C106.4,4.1,121.9,19.3,114,27.1C126.2,29.3,121.9,41.2,116.1,43.1C130,51.2,116.1,66.4,104.8,56.8C104.8,71.2,89.6,67.5,87.3,62.5C82,75.3,66.4,75.3,60.3,65.9C53.4,76.4,41.6,72.7,38.7,64.6C26,72.3,16.8,60.8,20.1,56C1.2,66.8,-3.5,43.8,10.4,42.3C-6.4,36,6.2,21.9,11.7,23z"/><path fill="url(#lg1)" stroke="#6d6d6d" d="M9.7,21C5.9,13.3,19.4,1,29.1,11C31.2,-0.1,45.1,-1.9,51.8,7.3C53.9,-3.8,70.3,-1.6,71.6,9.9C78.8,-6,97.3,4.4,95.6,14.4C104.4,2.1,119.9,17.3,112,25.1C124.2,27.3,119.9,39.2,114.1,41.1C128,49.2,114.1,64.4,102.8,54.8C102.8,69.2,87.6,65.5,85.3,60.5C80,73.3,64.4,73.3,58.3,63.9C51.4,74.4,39.6,70.7,36.7,62.6C24,70.3,14.8,58.8,18.1,54C-0.8,64.8,-5.5,41.8,8.4,40.3C-8.4,34,4.2,19.9,9.7,21z"/><text class="st1"><tspan y="39.8" x="34.5">申诉回复</tspan></text></g></g></svg>